<svg xmlns="http://www.w3.org/2000/svg" viewBox="0 0 24 24" role="img" aria-label="Waze">
  <path
    fill="#33CCFF"
    d="M12.075.002C7.615.002 4.13 3.487 4.13 7.947c0 1.718.517 3.313 1.399 4.647L12.075 24l6.546-11.406a7.913 7.913 0 0 0 1.399-4.647C20.02 3.487 16.535.002 12.075.002z"
  />
  <ellipse fill="#FFFFFF" cx="12" cy="9.25" rx="4.25" ry="3.75" />
  <circle fill="#365663" cx="9.45" cy="8.65" r="1.05" />
  <circle fill="#365663" cx="14.55" cy="8.65" r="1.05" />
  <path
    fill="#365663"
    d="M9.05 11.05c.72.98 1.88 1.62 2.95 1.62s2.23-.64 2.95-1.62c.21-.29-.04-.68-.43-.68H9.48c-.39 0-.64.39-.43.68z"
  />
</svg>
