<svg xmlns="http://www.w3.org/2000/svg" viewBox="0 0 1440 900" fill="none" role="img" aria-label="Mockup  -  Beshvil Halev hero background, desktop light">
  <defs>
    <linearGradient id="sky" x1="720" y1="0" x2="720" y2="520" gradientUnits="userSpaceOnUse">
      <stop offset="0%" stop-color="#FFFBF7"/>
      <stop offset="55%" stop-color="#F3EBE2"/>
      <stop offset="100%" stop-color="#E8DFD4"/>
    </linearGradient>
    <radialGradient id="earthMid" cx="0.5" cy="0.5" r="0.5">
      <stop offset="0%" stop-color="#A8A29E" stop-opacity="0.14"/>
      <stop offset="100%" stop-color="#A8A29E" stop-opacity="0"/>
    </radialGradient>
    <radialGradient id="oliveShade" cx="0.5" cy="0.5" r="0.5">
      <stop offset="0%" stop-color="#6B705C" stop-opacity="0.12"/>
      <stop offset="100%" stop-color="#6B705C" stop-opacity="0"/>
    </radialGradient>
    <radialGradient id="oliveDeep" cx="0.5" cy="0.5" r="0.5">
      <stop offset="0%" stop-color="#556B2F" stop-opacity="0.06"/>
      <stop offset="100%" stop-color="#556B2F" stop-opacity="0"/>
    </radialGradient>
    <radialGradient id="warmSoil" cx="0.5" cy="0.5" r="0.5">
      <stop offset="0%" stop-color="#92400E" stop-opacity="0.07"/>
      <stop offset="100%" stop-color="#92400E" stop-opacity="0"/>
    </radialGradient>
    <linearGradient id="vignetteBottom" x1="720" y1="420" x2="720" y2="900" gradientUnits="userSpaceOnUse">
      <stop offset="0%" stop-color="#292524" stop-opacity="0"/>
      <stop offset="55%" stop-color="#292524" stop-opacity="0.12"/>
      <stop offset="100%" stop-color="#292524" stop-opacity="0.26"/>
    </linearGradient>
    <linearGradient id="vignetteTop" x1="720" y1="0" x2="720" y2="180" gradientUnits="userSpaceOnUse">
      <stop offset="0%" stop-color="#292524" stop-opacity="0.08"/>
      <stop offset="100%" stop-color="#292524" stop-opacity="0"/>
    </linearGradient>
    <linearGradient id="sideFade" x1="0" y1="0" x2="1440" y2="0" gradientUnits="userSpaceOnUse">
      <stop offset="0%" stop-color="#FFFBF7" stop-opacity="0.35"/>
      <stop offset="12%" stop-color="#FFFBF7" stop-opacity="0"/>
      <stop offset="88%" stop-color="#FFFBF7" stop-opacity="0"/>
      <stop offset="100%" stop-color="#FFFBF7" stop-opacity="0.35"/>
    </linearGradient>
    <filter id="washBlur" x="-20%" y="-20%" width="140%" height="140%">
      <feGaussianBlur stdDeviation="48"/>
    </filter>
    <filter id="pathBlur" x="-30%" y="-30%" width="160%" height="160%">
      <feGaussianBlur stdDeviation="28"/>
    </filter>
  </defs>

  <rect width="1440" height="900" fill="url(#sky)"/>

  <!-- Nature washes ~70% -->
  <g filter="url(#washBlur)">
    <ellipse cx="980" cy="620" rx="520" ry="210" fill="url(#earthMid)"/>
    <ellipse cx="320" cy="680" rx="460" ry="190" fill="url(#oliveShade)"/>
    <ellipse cx="180" cy="820" rx="340" ry="140" fill="url(#oliveDeep)"/>
    <ellipse cx="1180" cy="760" rx="380" ry="160" fill="url(#warmSoil)"/>
  </g>

  <!-- Path channel ~10%  -  squint-invisible -->
  <path
    filter="url(#pathBlur)"
    fill="#FAF7F2"
    fill-opacity="0.14"
    d="M 1220 780 C 1080 760, 920 710, 760 690 C 620 672, 500 660, 360 640 C 260 628, 180 610, 120 590 C 90 580, 70 565, 60 550"
  />

  <!-- Contours ~20% -->
  <g stroke-linecap="round" stroke-linejoin="round" fill="none">
    <path stroke="#57534E" stroke-opacity="0.06" stroke-width="1" d="M 80 560 C 260 540, 420 530, 620 520 C 860 508, 1080 500, 1320 490"/>
    <path stroke="#57534E" stroke-opacity="0.07" stroke-width="1" d="M 60 590 C 240 572, 400 560, 600 548 C 840 534, 1060 524, 1340 512"/>
    <path stroke="#57534E" stroke-opacity="0.08" stroke-width="1" d="M 40 620 C 220 602, 380 588, 580 576 C 820 560, 1040 548, 1360 536"/>
    <path stroke="#57534E" stroke-opacity="0.09" stroke-width="1" d="M 30 650 C 210 632, 370 616, 570 604 C 810 588, 1020 574, 1380 562"/>
    <path stroke="#57534E" stroke-opacity="0.095" stroke-width="1" d="M 20 680 C 200 662, 360 646, 560 632 C 800 616, 1000 602, 1400 590"/>
    <path stroke="#57534E" stroke-opacity="0.09" stroke-width="1" d="M 40 710 C 220 692, 380 676, 580 662 C 820 646, 1020 632, 1360 620"/>
    <path stroke="#57534E" stroke-opacity="0.085" stroke-width="1" d="M 70 735 C 250 718, 410 704, 610 690 C 850 674, 1050 660, 1330 648"/>
    <path stroke="#57534E" stroke-opacity="0.08" stroke-width="1" d="M 110 758 C 290 742, 450 728, 650 714 C 890 698, 1090 684, 1290 672"/>
    <path stroke="#57534E" stroke-opacity="0.075" stroke-width="1" d="M 160 778 C 340 762, 500 748, 700 734 C 940 718, 1140 704, 1240 694"/>
    <path stroke="#57534E" stroke-opacity="0.07" stroke-width="1" d="M 220 794 C 400 780, 560 766, 760 752 C 1000 736, 1180 724, 1200 722"/>

    <path stroke="#57534E" stroke-opacity="0.05" stroke-width="1" d="M 120 520 C 300 510, 480 500, 680 492 C 920 482, 1120 474, 1280 468"/>
    <path stroke="#57534E" stroke-opacity="0.055" stroke-width="1" d="M 100 500 C 280 492, 460 484, 660 476 C 900 466, 1100 458, 1260 452"/>
    <path stroke="#57534E" stroke-opacity="0.05" stroke-width="1" d="M 140 480 C 320 474, 500 468, 700 462 C 940 454, 1140 446, 1220 442"/>

    <path stroke="#57534E" stroke-opacity="0.045" stroke-width="1" d="M 200 450 C 380 446, 560 442, 760 438 C 1000 432, 1180 428, 1200 427"/>
    <path stroke="#57534E" stroke-opacity="0.04" stroke-width="1" d="M 260 430 C 440 428, 620 426, 820 424 C 1060 420, 1140 418, 1160 417"/>
    <path stroke="#57534E" stroke-opacity="0.035" stroke-width="1" d="M 320 415 C 500 414, 680 413, 880 412 C 1080 410, 1120 409, 1140 408"/>

    <path stroke="#B45309" stroke-opacity="0.09" stroke-width="1" d="M 980 640 C 860 628, 740 618, 620 610 C 520 604, 420 598, 320 592"/>

    <path stroke="#57534E" stroke-opacity="0.06" stroke-width="1" d="M 380 640 C 420 620, 460 600, 500 580 C 540 560, 580 545, 620 535"/>
    <path stroke="#57534E" stroke-opacity="0.065" stroke-width="1" d="M 420 660 C 460 642, 500 624, 540 608 C 580 592, 620 580, 660 570"/>
    <path stroke="#57534E" stroke-opacity="0.07" stroke-width="1" d="M 460 680 C 500 664, 540 648, 580 634 C 620 620, 660 610, 700 602"/>
    <path stroke="#57534E" stroke-opacity="0.06" stroke-width="1" d="M 760 700 C 800 684, 840 668, 880 654 C 920 640, 960 628, 1000 618"/>
    <path stroke="#57534E" stroke-opacity="0.055" stroke-width="1" d="M 820 720 C 860 706, 900 692, 940 680 C 980 668, 1020 658, 1060 650"/>
  </g>

  <!-- Readability overlays (mockup) -->
  <rect width="1440" height="900" fill="url(#vignetteTop)"/>
  <rect width="1440" height="900" fill="url(#vignetteBottom)"/>
  <rect width="1440" height="900" fill="url(#sideFade)"/>
</svg>
