<svg xmlns="http://www.w3.org/2000/svg" viewBox="0 0 280 620" aria-label="??? ?????">
  <defs>
    <clipPath id="israel-land-clip">
      <path id="israel-outline" d="M 252.8 118 L 229.7 164.2 L 181.7 143.9 L 154 241.6 L 187.3 258 L 153.5 278.2 L 147.8 316.8 L 210.1 296.9 L 213.2 354 L 147.1 588.5 L 60 336.5 L 98.6 288.2 L 89.5 279.9 L 124.6 211.3 L 151.5 100.7 L 170.4 63.5 L 174.1 62 L 218.4 62.3 L 230.6 36.6 L 266.2 34.6 L 268.2 94.7 L 250.3 117 L 252.8 118 Z" />
    </clipPath>
    <linearGradient id="med-sea" x1="100%" y1="0%" x2="0%" y2="100%">
      <stop offset="0%" stop-color="#DCE8EE" />
      <stop offset="100%" stop-color="#C5D6E0" />
    </linearGradient>
    <linearGradient id="inland-water" x1="0%" y1="0%" x2="100%" y2="100%">
      <stop offset="0%" stop-color="#8AADBE" />
      <stop offset="100%" stop-color="#6E95A8" />
    </linearGradient>
  </defs>

  <rect x="0" y="0" width="54" height="620" fill="url(#med-sea)" />

  <path d="M 252.8 118 L 229.7 164.2 L 181.7 143.9 L 154 241.6 L 187.3 258 L 153.5 278.2 L 147.8 316.8 L 210.1 296.9 L 213.2 354 L 147.1 588.5 L 60 336.5 L 98.6 288.2 L 89.5 279.9 L 124.6 211.3 L 151.5 100.7 L 170.4 63.5 L 174.1 62 L 218.4 62.3 L 230.6 36.6 L 266.2 34.6 L 268.2 94.7 L 250.3 117 L 252.8 118 Z" fill="#E9E1D5" stroke="#C8BAA8" stroke-width="1.5" />

  <g clip-path="url(#israel-land-clip)">
    <path id="north" d="M 150.7 68 L 270 34.3 L 270 145.7 L 230.3 160.4 L 177.3 145.7 L 150.7 136.9 L 150.7 68 Z" fill="#8DA889" stroke="#FFFFFF" stroke-width="1.5" stroke-dasharray="5 4" />
    <path id="hasharon" d="M 107 163.3 L 150.7 157.5 L 150.7 210.3 L 115 214.7 L 107 189.7 L 107 163.3 Z" fill="#7A9E9A" stroke="#FFFFFF" stroke-width="1.5" stroke-dasharray="5 4" />
    <path id="center" d="M 150.7 157.5 L 168 160.4 L 168 248.4 L 150.7 210.3 L 150.7 157.5 Z" fill="#C4A574" stroke="#FFFFFF" stroke-width="1.5" stroke-dasharray="5 4" />
    <path id="jerusalem" d="M 160 219.1 L 168 219.1 L 168 266 L 160 266 L 160 219.1 Z" fill="#A8957C" stroke="#FFFFFF" stroke-width="1.5" stroke-dasharray="5 4" />
    <path id="judea-samaria" d="M 168 160.4 L 234.2 156 L 234.2 254.3 L 168 254.3 L 168 160.4 Z" fill="#B5C4A8" stroke="#FFFFFF" stroke-width="1.5" stroke-dasharray="4 3" />
    <path id="south" d="M 107 248.4 L 168 248.4 L 168 254.3 L 234.2 254.3 L 234.2 591.6 L 107 591.6 L 107 248.4 Z" fill="#D4A574" stroke="#FFFFFF" stroke-width="1.5" stroke-dasharray="5 4" />
  </g>

  <path id="sea-of-galilee" d="M 230.3 97.3 L 243.5 90 L 247.5 101.7 L 239.5 112 L 230.3 107.6 Z" fill="url(#inland-water)" stroke="#FFFFFF" stroke-width="1" />
  <path id="dead-sea" d="M 230.3 222 L 239.5 222 L 234.2 442 L 226.3 442 Z" fill="url(#inland-water)" stroke="#FFFFFF" stroke-width="1" />

  <path d="M 252.8 118 L 229.7 164.2 L 181.7 143.9 L 154 241.6 L 187.3 258 L 153.5 278.2 L 147.8 316.8 L 210.1 296.9 L 213.2 354 L 147.1 588.5 L 60 336.5 L 98.6 288.2 L 89.5 279.9 L 124.6 211.3 L 151.5 100.7 L 170.4 63.5 L 174.1 62 L 218.4 62.3 L 230.6 36.6 L 266.2 34.6 L 268.2 94.7 L 250.3 117 L 252.8 118 Z" fill="none" stroke="#C8BAA8" stroke-width="1.75" />
</svg>
