<svg xmlns="http://www.w3.org/2000/svg" viewBox="0 0 200 558" aria-label="??? ?????">
  <defs>
    <clipPath id="israel-land-clip">
      <path id="israel-outline" d="M 177.4 94.4 L 172.9 105.5 L 168.4 116.6 L 163.9 127.7 L 159.4 138.8 L 150 133.9 L 140.6 129.1 L 131.2 124.2 L 121.9 119.3 L 116.5 142.8 L 111 166.2 L 105.6 189.7 L 100.2 213.2 L 106.7 217.2 L 113.2 221.1 L 119.7 225.1 L 126.2 229 L 119.6 233.9 L 113 238.7 L 106.4 243.6 L 99.8 248.4 L 98.6 257.7 L 97.5 267 L 96.4 276.3 L 95.3 285.6 L 107.5 280.8 L 119.7 276 L 131.8 271.2 L 144 266.4 L 144.6 280.2 L 145.2 293.9 L 145.8 307.6 L 146.4 321.3 L 133.5 377.7 L 120.6 434 L 107.7 490.4 L 94.8 546.8 L 77.8 486.2 L 60.8 425.6 L 43.7 365 L 26.7 304.5 L 34.2 292.9 L 41.8 281.2 L 49.3 269.6 L 56.9 258 L 55.1 256 L 53.3 254 L 51.5 252 L 49.8 250 L 56.6 233.5 L 63.5 217.1 L 70.3 200.6 L 77.2 184.1 L 82.4 157.5 L 87.7 130.9 L 92.9 104.3 L 98.2 77.7 L 101.9 68.8 L 105.6 59.9 L 109.3 50.9 L 113 42 L 113.7 41.6 L 114.5 41.3 L 115.2 40.9 L 115.9 40.5 L 124.5 40.6 L 133.2 40.7 L 141.9 40.7 L 150.6 40.8 L 152.9 34.6 L 155.3 28.4 L 157.7 22.3 L 160.1 16.1 L 167 15.6 L 174 15.2 L 180.9 14.7 L 187.9 14.2 L 188.3 28.7 L 188.7 43.1 L 189.1 57.5 L 189.5 72 L 186 77.3 L 182.5 82.7 L 178.9 88 L 175.4 93.4 L 175.9 93.6 L 176.4 93.9 L 176.9 94.1 Z" />
    </clipPath>
    <linearGradient id="med-sea" x1="0%" y1="0%" x2="100%" y2="100%">
      <stop offset="0%" stop-color="#D8E4E8" />
      <stop offset="100%" stop-color="#E8E0D4" stop-opacity="0.72" />
    </linearGradient>
    <radialGradient id="kinneret" cx="45%" cy="40%" r="65%">
      <stop offset="0%" stop-color="#A8C4CE" />
      <stop offset="100%" stop-color="#7A9DA8" />
    </radialGradient>
    <linearGradient id="dead-sea" x1="0%" y1="0%" x2="0%" y2="100%">
      <stop offset="0%" stop-color="#9AB8C4" />
      <stop offset="100%" stop-color="#7A98A4" />
    </linearGradient>
  </defs>

  <path id="mediterranean-coast" d="M 4 38.5 L 101.9 40.5 L 101.2 40.9 L 100.5 41.3 L 99.7 41.6 L 99 42 L 95.3 50.9 L 91.6 59.9 L 87.9 68.8 L 84.2 77.7 L 78.9 104.3 L 73.7 130.9 L 68.4 157.5 L 63.2 184.1 L 56.3 200.6 L 49.5 217.1 L 42.6 233.5 L 35.8 250 L 37.5 252 L 39.3 254 L 41.1 256 L 42.9 258 L 35.3 269.6 L 27.8 281.2 L 20.2 292.9 L 12.7 304.5 L 29.7 365 L 46.8 425.6 L 63.8 486.2 L 80.8 546.8 L 4 548.8 Z" fill="url(#med-sea)" opacity="0.92" />
  <path d="M 177.4 94.4 L 172.9 105.5 L 168.4 116.6 L 163.9 127.7 L 159.4 138.8 L 150 133.9 L 140.6 129.1 L 131.2 124.2 L 121.9 119.3 L 116.5 142.8 L 111 166.2 L 105.6 189.7 L 100.2 213.2 L 106.7 217.2 L 113.2 221.1 L 119.7 225.1 L 126.2 229 L 119.6 233.9 L 113 238.7 L 106.4 243.6 L 99.8 248.4 L 98.6 257.7 L 97.5 267 L 96.4 276.3 L 95.3 285.6 L 107.5 280.8 L 119.7 276 L 131.8 271.2 L 144 266.4 L 144.6 280.2 L 145.2 293.9 L 145.8 307.6 L 146.4 321.3 L 133.5 377.7 L 120.6 434 L 107.7 490.4 L 94.8 546.8 L 77.8 486.2 L 60.8 425.6 L 43.7 365 L 26.7 304.5 L 34.2 292.9 L 41.8 281.2 L 49.3 269.6 L 56.9 258 L 55.1 256 L 53.3 254 L 51.5 252 L 49.8 250 L 56.6 233.5 L 63.5 217.1 L 70.3 200.6 L 77.2 184.1 L 82.4 157.5 L 87.7 130.9 L 92.9 104.3 L 98.2 77.7 L 101.9 68.8 L 105.6 59.9 L 109.3 50.9 L 113 42 L 113.7 41.6 L 114.5 41.3 L 115.2 40.9 L 115.9 40.5 L 124.5 40.6 L 133.2 40.7 L 141.9 40.7 L 150.6 40.8 L 152.9 34.6 L 155.3 28.4 L 157.7 22.3 L 160.1 16.1 L 167 15.6 L 174 15.2 L 180.9 14.7 L 187.9 14.2 L 188.3 28.7 L 188.7 43.1 L 189.1 57.5 L 189.5 72 L 186 77.3 L 182.5 82.7 L 178.9 88 L 175.4 93.4 L 175.9 93.6 L 176.4 93.9 L 176.9 94.1 Z" fill="#E9E1D5" stroke="#C4B8A8" stroke-width="1.25" />

  <g clip-path="url(#israel-land-clip)">
    <path id="north" d="M 97.6 46.3 L 190.9 13.9 L 190.9 121.1 L 159.8 135.2 L 118.4 121.1 L 97.6 112.6 L 97.6 46.3 Z" fill="#7A8B5C" stroke="rgba(255,255,255,0.58)" stroke-width="1.15" />
    <path id="hasharon" d="M 63.4 140.8 L 97.6 132.3 L 97.6 185.9 L 71.7 190.2 L 63.4 169 L 63.4 140.8 Z" fill="#9BA896" stroke="rgba(255,255,255,0.58)" stroke-width="1.15" />
    <path id="center" d="M 97.6 132.3 L 111.1 135.2 L 111.1 219.8 L 97.6 185.9 L 97.6 132.3 Z" fill="#D4C4A0" stroke="rgba(255,255,255,0.58)" stroke-width="1.15" />
    <path id="jerusalem" d="M 104.9 191.6 L 111.1 191.6 L 111.1 239.5 L 104.9 239.5 L 104.9 191.6 Z" fill="#B8A898" stroke="rgba(255,255,255,0.58)" stroke-width="1.15" />
    <path id="judea-samaria" d="M 111.1 135.2 L 162.9 130.9 L 162.9 229.6 L 111.1 229.6 L 111.1 135.2 Z" fill="#A8B898" stroke="rgba(255,255,255,0.58)" stroke-width="1.15" stroke-dasharray="5 3.5" />
    <path id="south" d="M 63.4 219.8 L 111.1 219.8 L 111.1 229.6 L 162.9 229.6 L 162.9 549.8 L 63.4 549.8 L 63.4 219.8 Z" fill="#C9A86C" stroke="rgba(255,255,255,0.58)" stroke-width="1.15" />
    <path id="sea-of-galilee" d="M 158.8 67.5 L 167.1 70.3 L 173.3 78.7 L 175.3 90 L 170.2 98.5 L 162.9 95.7 L 158.8 84.4 L 156.7 73.1 Z" fill="url(#kinneret)" stroke="rgba(255,255,255,0.55)" stroke-width="0.85" />
    <path id="dead-sea" d="M 158.8 194.4 L 167.1 191.6 L 165 286.1 L 161.9 377.7 L 158.8 462.3 L 156.7 535.7 L 159.8 546.9 L 167.1 542.7 L 169.1 455.3 L 167.1 356.6 L 164 271.9 L 160.8 194.4 Z" fill="url(#dead-sea)" stroke="rgba(255,255,255,0.5)" stroke-width="0.85" />
  </g>

  <path d="M 177.4 94.4 L 172.9 105.5 L 168.4 116.6 L 163.9 127.7 L 159.4 138.8 L 150 133.9 L 140.6 129.1 L 131.2 124.2 L 121.9 119.3 L 116.5 142.8 L 111 166.2 L 105.6 189.7 L 100.2 213.2 L 106.7 217.2 L 113.2 221.1 L 119.7 225.1 L 126.2 229 L 119.6 233.9 L 113 238.7 L 106.4 243.6 L 99.8 248.4 L 98.6 257.7 L 97.5 267 L 96.4 276.3 L 95.3 285.6 L 107.5 280.8 L 119.7 276 L 131.8 271.2 L 144 266.4 L 144.6 280.2 L 145.2 293.9 L 145.8 307.6 L 146.4 321.3 L 133.5 377.7 L 120.6 434 L 107.7 490.4 L 94.8 546.8 L 77.8 486.2 L 60.8 425.6 L 43.7 365 L 26.7 304.5 L 34.2 292.9 L 41.8 281.2 L 49.3 269.6 L 56.9 258 L 55.1 256 L 53.3 254 L 51.5 252 L 49.8 250 L 56.6 233.5 L 63.5 217.1 L 70.3 200.6 L 77.2 184.1 L 82.4 157.5 L 87.7 130.9 L 92.9 104.3 L 98.2 77.7 L 101.9 68.8 L 105.6 59.9 L 109.3 50.9 L 113 42 L 113.7 41.6 L 114.5 41.3 L 115.2 40.9 L 115.9 40.5 L 124.5 40.6 L 133.2 40.7 L 141.9 40.7 L 150.6 40.8 L 152.9 34.6 L 155.3 28.4 L 157.7 22.3 L 160.1 16.1 L 167 15.6 L 174 15.2 L 180.9 14.7 L 187.9 14.2 L 188.3 28.7 L 188.7 43.1 L 189.1 57.5 L 189.5 72 L 186 77.3 L 182.5 82.7 L 178.9 88 L 175.4 93.4 L 175.9 93.6 L 176.4 93.9 L 176.9 94.1 Z" fill="none" stroke="#B8AA98" stroke-width="1.5" />
</svg>
